<mxfile host="65bd71144e" modified="2020-12-30T10:26:22.835Z" agent="5.0 (Windows NT 10.0; Win64; x64) AppleWebKit/537.36 (KHTML, like Gecko) Code/1.52.1 Chrome/83.0.4103.122 Electron/9.3.5 Safari/537.36" etag="_DxI9RyngqRJBRAXYgyf" version="13.10.0" type="embed">
    <diagram id="ZRLiI2Tis28ZZQPQ9gke" name="Page-1">
        <mxGraphModel dx="1060" dy="790" grid="1" gridSize="10" guides="1" tooltips="1" connect="1" arrows="1" fold="1" page="1" pageScale="1" pageWidth="827" pageHeight="1169" math="0" shadow="0">
            <root>
                <mxCell id="0"/>
                <mxCell id="1" parent="0"/>
                <mxCell id="2" value="管理" style="html=1;" parent="1" vertex="1">
                    <mxGeometry x="378" y="200" width="110" height="50" as="geometry"/>
                </mxCell>
                <mxCell id="3" value="描述" style="html=1;" parent="1" vertex="1">
                    <mxGeometry x="610" y="110" width="110" height="50" as="geometry"/>
                </mxCell>
                <mxCell id="4" value="可见性" style="html=1;" parent="1" vertex="1">
                    <mxGeometry x="610" y="250" width="110" height="50" as="geometry"/>
                </mxCell>
                <mxCell id="5" value="管理实体" style="html=1;" parent="1" vertex="1">
                    <mxGeometry x="378" y="360" width="110" height="50" as="geometry"/>
                </mxCell>
                <mxCell id="6" value="工作" style="html=1;" parent="1" vertex="1">
                    <mxGeometry x="118" y="360" width="110" height="50" as="geometry"/>
                </mxCell>
                <mxCell id="7" value="数据" style="html=1;" parent="1" vertex="1">
                    <mxGeometry x="378" y="860" width="110" height="50" as="geometry"/>
                </mxCell>
                <mxCell id="8" value="工作阶段" style="html=1;" parent="1" vertex="1">
                    <mxGeometry x="118" y="495" width="110" height="50" as="geometry"/>
                </mxCell>
                <mxCell id="9" value="过程" style="html=1;" parent="1" vertex="1">
                    <mxGeometry x="118" y="619" width="110" height="50" as="geometry"/>
                </mxCell>
                <mxCell id="10" value="工作节点" style="html=1;" parent="1" vertex="1">
                    <mxGeometry x="118" y="739" width="110" height="50" as="geometry"/>
                </mxCell>
                <mxCell id="11" value="任务" style="html=1;" parent="1" vertex="1">
                    <mxGeometry x="118" y="859" width="110" height="50" as="geometry"/>
                </mxCell>
                <mxCell id="12" value="包含多个" style="endArrow=open;endSize=12;dashed=1;html=1;exitX=0.5;exitY=1;exitDx=0;exitDy=0;entryX=0.5;entryY=0;entryDx=0;entryDy=0;" parent="1" source="9" target="10" edge="1">
                    <mxGeometry width="160" relative="1" as="geometry">
                        <mxPoint x="118" y="930" as="sourcePoint"/>
                        <mxPoint x="278" y="930" as="targetPoint"/>
                    </mxGeometry>
                </mxCell>
                <mxCell id="13" value="包含多个" style="endArrow=open;endSize=12;dashed=1;html=1;exitX=0.5;exitY=1;exitDx=0;exitDy=0;" parent="1" source="10" target="11" edge="1">
                    <mxGeometry width="160" relative="1" as="geometry">
                        <mxPoint x="118" y="930" as="sourcePoint"/>
                        <mxPoint x="278" y="930" as="targetPoint"/>
                    </mxGeometry>
                </mxCell>
                <mxCell id="14" value="组装" style="html=1;" parent="1" vertex="1">
                    <mxGeometry x="378" y="610" width="110" height="50" as="geometry"/>
                </mxCell>
                <mxCell id="15" value="生成一个" style="endArrow=open;endSize=12;dashed=1;html=1;entryX=0;entryY=0.5;entryDx=0;entryDy=0;" parent="1" source="11" target="7" edge="1">
                    <mxGeometry width="160" relative="1" as="geometry">
                        <mxPoint x="48" y="870" as="sourcePoint"/>
                        <mxPoint x="208" y="870" as="targetPoint"/>
                    </mxGeometry>
                </mxCell>
                <mxCell id="16" value="输出多个" style="endArrow=open;endSize=12;dashed=1;html=1;exitX=0.5;exitY=1;exitDx=0;exitDy=0;entryX=0.5;entryY=0;entryDx=0;entryDy=0;" parent="1" source="5" target="14" edge="1">
                    <mxGeometry width="160" relative="1" as="geometry">
                        <mxPoint x="578" y="550" as="sourcePoint"/>
                        <mxPoint x="738" y="550" as="targetPoint"/>
                    </mxGeometry>
                </mxCell>
                <mxCell id="18" value="有多个" style="endArrow=open;endSize=12;dashed=1;html=1;exitX=0.5;exitY=1;exitDx=0;exitDy=0;" parent="1" source="6" target="8" edge="1">
                    <mxGeometry width="160" relative="1" as="geometry">
                        <mxPoint x="278" y="715" as="sourcePoint"/>
                        <mxPoint x="438" y="715" as="targetPoint"/>
                    </mxGeometry>
                </mxCell>
                <mxCell id="19" value="包含一个" style="endArrow=open;endSize=12;dashed=1;html=1;entryX=0.5;entryY=0;entryDx=0;entryDy=0;" parent="1" source="8" target="9" edge="1">
                    <mxGeometry width="160" relative="1" as="geometry">
                        <mxPoint x="348" y="580" as="sourcePoint"/>
                        <mxPoint x="258" y="580" as="targetPoint"/>
                    </mxGeometry>
                </mxCell>
                <mxCell id="23" value="使用多个" style="endArrow=open;endSize=12;dashed=1;html=1;exitX=0.5;exitY=1;exitDx=0;exitDy=0;" parent="1" source="14" target="7" edge="1">
                    <mxGeometry width="160" relative="1" as="geometry">
                        <mxPoint x="118" y="930" as="sourcePoint"/>
                        <mxPoint x="278" y="930" as="targetPoint"/>
                    </mxGeometry>
                </mxCell>
                <mxCell id="24" value="其他管理实体" style="html=1;" parent="1" vertex="1">
                    <mxGeometry x="620" y="610" width="110" height="50" as="geometry"/>
                </mxCell>
                <mxCell id="25" value="引用多个" style="endArrow=open;endSize=12;dashed=1;html=1;exitX=0;exitY=0.5;exitDx=0;exitDy=0;entryX=1;entryY=0.5;entryDx=0;entryDy=0;" parent="1" source="24" target="14" edge="1">
                    <mxGeometry width="160" relative="1" as="geometry">
                        <mxPoint x="120" y="930" as="sourcePoint"/>
                        <mxPoint x="280" y="930" as="targetPoint"/>
                    </mxGeometry>
                </mxCell>
                <mxCell id="26" value="有一组" style="endArrow=open;endSize=12;dashed=1;html=1;entryX=0;entryY=0.5;entryDx=0;entryDy=0;exitX=1;exitY=0.5;exitDx=0;exitDy=0;" parent="1" source="2" target="3" edge="1">
                    <mxGeometry x="-0.0172" y="13" width="160" relative="1" as="geometry">
                        <mxPoint x="488" y="224.5" as="sourcePoint"/>
                        <mxPoint x="648" y="224.5" as="targetPoint"/>
                        <Array as="points">
                            <mxPoint x="520" y="225"/>
                            <mxPoint x="520" y="135"/>
                        </Array>
                        <mxPoint y="-1" as="offset"/>
                    </mxGeometry>
                </mxCell>
                <mxCell id="27" value="有多组" style="endArrow=open;endSize=12;dashed=1;html=1;exitX=1;exitY=0.5;exitDx=0;exitDy=0;entryX=0;entryY=0.5;entryDx=0;entryDy=0;" parent="1" source="2" target="4" edge="1">
                    <mxGeometry width="160" relative="1" as="geometry">
                        <mxPoint x="440" y="300" as="sourcePoint"/>
                        <mxPoint x="600" y="300" as="targetPoint"/>
                        <Array as="points">
                            <mxPoint x="520" y="225"/>
                            <mxPoint x="520" y="275"/>
                        </Array>
                    </mxGeometry>
                </mxCell>
                <mxCell id="28" value="有多个" style="endArrow=open;endSize=12;dashed=1;html=1;exitX=0.5;exitY=1;exitDx=0;exitDy=0;entryX=0.5;entryY=0;entryDx=0;entryDy=0;" parent="1" source="2" target="5" edge="1">
                    <mxGeometry width="160" relative="1" as="geometry">
                        <mxPoint x="400" y="300" as="sourcePoint"/>
                        <mxPoint x="560" y="300" as="targetPoint"/>
                    </mxGeometry>
                </mxCell>
                <mxCell id="29" value="有多个" style="endArrow=open;endSize=12;dashed=1;html=1;entryX=1;entryY=0.5;entryDx=0;entryDy=0;exitX=0;exitY=0.5;exitDx=0;exitDy=0;" parent="1" source="5" target="6" edge="1">
                    <mxGeometry width="160" relative="1" as="geometry">
                        <mxPoint x="220" y="310" as="sourcePoint"/>
                        <mxPoint x="380" y="310" as="targetPoint"/>
                    </mxGeometry>
                </mxCell>
            </root>
        </mxGraphModel>
    </diagram>
</mxfile>